<svg width="293" height="21" viewBox="0 0 293 21" fill="none" xmlns="http://www.w3.org/2000/svg">
<path d="M10.164 4.796L4.172 20H0.532L7.168 3.2C7.868 1.436 9.156 0.763999 11.144 0.763999C13.104 0.763999 14.392 1.436 15.064 3.2L21.448 20H17.78L12.04 4.796C11.872 4.348 11.564 4.152 11.116 4.152C10.668 4.152 10.36 4.348 10.164 4.796ZM24.253 1.1H27.557V20H24.253V1.1ZM35.376 5.16V20H32.1V4.992C32.1 2.472 33.584 0.763999 36.636 0.763999C39.324 0.763999 40.864 2.108 41.396 4.488L44.056 16.052C44.224 16.724 44.616 17.116 45.316 17.116C46.016 17.116 46.408 16.724 46.576 16.052L49.236 4.488C49.768 2.108 51.168 0.763999 53.884 0.763999C56.936 0.763999 58.42 2.472 58.42 4.992V20H55.144V5.16C55.144 4.432 54.668 3.956 53.8 3.956C53.016 3.956 52.624 4.348 52.484 4.964L49.768 16.528C49.18 19.02 47.892 20.336 45.288 20.336C42.656 20.336 41.284 18.964 40.724 16.528L38.036 4.964C37.896 4.348 37.476 3.956 36.72 3.956C35.852 3.956 35.376 4.432 35.376 5.16ZM67.9838 1.1H77.5598V4.404H67.8718C66.1638 4.404 65.4078 5.328 65.4078 6.644C65.4078 7.792 65.9958 8.884 68.2078 8.884H72.6318C77.7838 8.884 78.9878 11.74 78.9878 14.456C78.9878 17.648 77.2798 20 72.9678 20H62.4398V16.696H73.0798C74.8718 16.696 75.6838 15.716 75.6838 14.344C75.6838 13.112 75.0398 11.992 72.7158 11.992H68.3198C63.2798 11.992 62.1038 9.164 62.1038 6.532C62.1038 3.396 63.7838 1.1 67.9838 1.1ZM95.1361 1.1H104.712V4.404H95.0241C93.3161 4.404 92.5601 5.328 92.5601 6.644C92.5601 7.792 93.1481 8.884 95.3601 8.884H99.7841C104.936 8.884 106.14 11.74 106.14 14.456C106.14 17.648 104.432 20 100.12 20H89.5921V16.696H100.232C102.024 16.696 102.836 15.716 102.836 14.344C102.836 13.112 102.192 11.992 99.8681 11.992H95.4721C90.4321 11.992 89.2561 9.164 89.2561 6.532C89.2561 3.396 90.9361 1.1 95.1361 1.1ZM109.849 5.216H118.725C122.421 5.216 123.877 7.288 123.877 10.088V17.032C123.877 19.16 123.317 20 120.825 20H113.909C110.409 20 108.953 18.292 108.953 15.492C108.953 12.804 110.297 11.236 113.937 11.236H120.965V10.116C120.965 8.968 120.321 8.072 118.697 8.072H109.849V5.216ZM120.153 17.116C120.741 17.116 120.965 16.892 120.965 16.36V13.588H113.993C112.425 13.588 111.865 14.232 111.865 15.324C111.865 16.416 112.453 17.116 113.937 17.116H120.153ZM128.661 5.216H137.537C141.233 5.216 142.689 7.288 142.689 10.088V17.032C142.689 19.16 142.129 20 139.637 20H132.721C129.221 20 127.765 18.292 127.765 15.492C127.765 12.804 129.109 11.236 132.749 11.236H139.777V10.116C139.777 8.968 139.133 8.072 137.509 8.072H128.661V5.216ZM138.965 17.116C139.553 17.116 139.777 16.892 139.777 16.36V13.588H132.805C131.237 13.588 130.677 14.232 130.677 15.324C130.677 16.416 131.265 17.116 132.749 17.116H138.965ZM152.066 1.1H161.642V4.404H151.954C150.246 4.404 149.49 5.328 149.49 6.644C149.49 7.792 150.078 8.884 152.29 8.884H156.714C161.866 8.884 163.07 11.74 163.07 14.456C163.07 17.648 161.362 20 157.05 20H146.522V16.696H157.162C158.954 16.696 159.766 15.716 159.766 14.344C159.766 13.112 159.122 11.992 156.798 11.992H152.402C147.362 11.992 146.186 9.164 146.186 6.532C146.186 3.396 147.866 1.1 152.066 1.1ZM174.206 1.1H177.51V20H174.206V1.1ZM185.357 5.048V20H182.053V4.88C182.053 2.416 183.453 0.763999 186.393 0.763999C189.025 0.763999 190.201 2.108 190.985 4.264L196.501 16.332C196.725 16.78 197.089 17.116 197.705 17.116C198.405 17.116 198.825 16.696 198.825 16.052V1.1H202.157V16.192C202.157 18.684 200.729 20.336 197.817 20.336C195.185 20.336 193.981 18.992 193.197 16.836L187.681 4.768C187.429 4.208 187.093 3.956 186.505 3.956C185.749 3.956 185.357 4.376 185.357 5.048ZM204.927 1.1H208.567L214.307 16.304C214.475 16.752 214.783 16.948 215.231 16.948C215.679 16.948 215.959 16.752 216.155 16.304L222.175 1.1H225.843L219.179 17.9C218.479 19.664 217.191 20.336 215.231 20.336C213.383 20.336 211.955 19.748 211.255 17.9L204.927 1.1ZM235.394 1.1H237.97C243.458 1.1 246.51 4.236 246.51 10.592C246.51 16.92 243.486 20 237.97 20H235.394C229.878 20 226.854 16.92 226.854 10.592C226.854 4.236 229.906 1.1 235.394 1.1ZM237.97 4.404H235.394C231.754 4.404 230.158 6.252 230.158 10.592C230.158 14.904 231.726 16.696 235.394 16.696H237.97C241.61 16.696 243.178 14.904 243.178 10.564C243.178 6.252 241.61 4.404 237.97 4.404ZM250.413 1.1H253.717V20H250.413V1.1ZM266.128 1.1H273.436V4.404H266.128C262.488 4.404 260.892 6.224 260.892 10.564C260.892 14.876 262.46 16.696 266.128 16.696H273.436V20H266.128C260.612 20 257.588 16.892 257.588 10.564C257.588 4.208 260.64 1.1 266.128 1.1ZM283.002 1.1H292.466V4.404H283.002C281.014 4.404 280.146 5.328 280.146 6.784C280.146 8.324 281.126 9.024 283.03 9.024H292.326V12.02H282.946C281.042 12.02 280.062 12.776 280.062 14.316C280.062 15.8 280.986 16.696 282.918 16.696H292.494V20H282.918C278.438 20 276.618 17.788 276.618 14.848C276.618 12.692 277.598 11.236 279.334 10.508C277.57 9.78 276.674 8.324 276.674 6.252C276.674 3.228 278.55 1.1 283.002 1.1Z" fill="#2F006D"/>
</svg>
