<svg width="155" height="15" viewBox="0 0 155 15" fill="none" xmlns="http://www.w3.org/2000/svg">
<path d="M4.42313 0.5H11.2631V2.86H4.34312C3.12313 2.86 2.58313 3.52 2.58313 4.46C2.58313 5.28 3.00313 6.06 4.58313 6.06H7.74313C11.4231 6.06 12.2831 8.1 12.2831 10.04C12.2831 12.32 11.0631 14 7.98313 14H0.463125V11.64H8.06313C9.34313 11.64 9.92313 10.94 9.92313 9.96C9.92313 9.08 9.46313 8.28 7.80313 8.28H4.66313C1.06313 8.28 0.223125 6.26 0.223125 4.38C0.223125 2.14 1.42313 0.5 4.42313 0.5ZM20.4275 0.5H22.2675C26.1875 0.5 28.3675 2.74 28.3675 7.28C28.3675 11.8 26.2075 14 22.2675 14H20.4275C16.4875 14 14.3275 11.8 14.3275 7.28C14.3275 2.74 16.5075 0.5 20.4275 0.5ZM22.2675 2.86H20.4275C17.8275 2.86 16.6875 4.18 16.6875 7.28C16.6875 10.36 17.8075 11.64 20.4275 11.64H22.2675C24.8675 11.64 25.9875 10.36 25.9875 7.26C25.9875 4.18 24.8675 2.86 22.2675 2.86ZM31.0156 0.5H33.3756V9.32C33.3756 10.62 34.0156 11.64 36.1356 11.64H41.3756V14H35.9956C32.4156 14 31.0156 12.04 31.0156 9.34V0.5ZM43.1455 0.5H45.5455V9.52C45.5455 10.86 46.2255 11.64 47.7855 11.64H50.1855C51.7055 11.64 52.4055 10.86 52.4055 9.52V0.5H54.7255V9.7C54.7255 12.54 53.2255 14 50.3455 14H47.5055C44.6255 14 43.1455 12.54 43.1455 9.7V0.5ZM62.4127 3.12L58.3727 14H55.8527L60.0327 2.76C60.5527 1.22 61.4127 0.259999 63.2127 0.259999C65.2127 0.259999 66.2127 1.44 66.2127 3.2V11.18C66.2127 11.64 66.4927 11.94 66.8927 11.94C67.2527 11.94 67.5327 11.72 67.6527 11.38L70.9327 2.76C71.4527 1.22 72.3127 0.259999 74.1127 0.259999C76.1127 0.259999 77.1127 1.44 77.1127 3.2V14H74.7327V3.32C74.7327 2.84 74.4527 2.54 74.0527 2.54C73.7127 2.54 73.4327 2.78 73.3127 3.12L70.0327 11.74C69.5127 13.28 68.6327 14.24 66.8327 14.24C64.8527 14.24 63.8527 13.06 63.8527 11.28V3.32C63.8527 2.84 63.5527 2.54 63.1527 2.54C62.7927 2.54 62.5527 2.78 62.4127 3.12ZM91.8464 0.5H94.2264V9.34C94.2264 12.04 92.8064 14 89.2264 14H84.6464V11.64H89.0864C91.2064 11.64 91.8464 10.62 91.8464 9.32V0.5ZM102.205 3.14L97.9253 14H95.3253L100.065 2C100.565 0.739999 101.485 0.259999 102.905 0.259999C104.305 0.259999 105.225 0.739999 105.705 2L110.265 14H107.645L103.545 3.14C103.425 2.82 103.205 2.68 102.885 2.68C102.565 2.68 102.345 2.82 102.205 3.14ZM112.229 0.5H119.149C122.189 0.5 123.489 2.38 123.489 4.54C123.489 6.58 122.309 8.78 119.149 8.78H114.949C114.729 8.78 114.609 8.88 114.609 9.12V14H112.249V8.66C112.249 7.14 112.889 6.52 114.369 6.52H119.229C120.569 6.52 121.109 5.6 121.109 4.66C121.109 3.68 120.529 2.86 119.249 2.86H112.229V0.5ZM129.998 3.14L125.718 14H123.118L127.858 2C128.358 0.739999 129.278 0.259999 130.698 0.259999C132.098 0.259999 133.018 0.739999 133.498 2L138.058 14H135.438L131.338 3.14C131.218 2.82 130.998 2.68 130.678 2.68C130.358 2.68 130.138 2.82 129.998 3.14ZM142.402 3.32V14H140.042V3.2C140.042 1.44 141.042 0.259999 143.142 0.259999C145.022 0.259999 145.862 1.22 146.422 2.76L150.362 11.38C150.522 11.7 150.782 11.94 151.222 11.94C151.722 11.94 152.022 11.64 152.022 11.18V0.5H154.402V11.28C154.402 13.06 153.382 14.24 151.302 14.24C149.422 14.24 148.562 13.28 148.002 11.74L144.062 3.12C143.882 2.72 143.642 2.54 143.222 2.54C142.682 2.54 142.402 2.84 142.402 3.32Z" fill="white"/>
</svg>
