<svg width="25" height="24" viewBox="0 0 25 24" fill="none" xmlns="http://www.w3.org/2000/svg">
<path d="M21.8113 6.87844L17.6216 2.68969C17.4823 2.55037 17.3169 2.43985 17.1349 2.36444C16.9529 2.28904 16.7578 2.25023 16.5608 2.25023C16.3638 2.25023 16.1687 2.28904 15.9867 2.36444C15.8047 2.43985 15.6393 2.55037 15.5 2.68969L3.93969 14.25C3.79979 14.3888 3.68888 14.554 3.6134 14.736C3.53792 14.918 3.49937 15.1133 3.5 15.3103V19.5C3.5 19.8978 3.65804 20.2794 3.93934 20.5607C4.22064 20.842 4.60218 21 5 21H20.75C20.9489 21 21.1397 20.921 21.2803 20.7803C21.421 20.6397 21.5 20.4489 21.5 20.25C21.5 20.0511 21.421 19.8603 21.2803 19.7197C21.1397 19.579 20.9489 19.5 20.75 19.5H11.3113L21.8113 9C21.9506 8.86071 22.0611 8.69534 22.1365 8.51332C22.2119 8.33131 22.2507 8.13623 22.2507 7.93922C22.2507 7.74221 22.2119 7.54713 22.1365 7.36512C22.0611 7.18311 21.9506 7.01773 21.8113 6.87844ZM13.25 7.06031L14.8147 8.625L6.875 16.5647L5.31031 15L13.25 7.06031ZM5 19.5V16.8103L7.68969 19.5H5ZM9.5 19.1897L7.93625 17.625L15.875 9.68531L17.4397 11.25L9.5 19.1897ZM18.5 10.1897L14.3113 6L16.5613 3.75L20.75 7.93969L18.5 10.1897Z" fill="#2F006D"/>
</svg>
