<svg width="94" height="98" viewBox="0 0 94 98" fill="none" xmlns="http://www.w3.org/2000/svg">
<path d="M27.9953 70.75C28.3894 71.0462 28.8381 71.2618 29.3156 71.3844C29.7931 71.507 30.2901 71.5343 30.7782 71.4646C31.2662 71.395 31.7358 71.2298 32.1599 70.9784C32.5841 70.7271 32.9545 70.3946 33.25 70C35.5205 66.9727 38.4646 64.5156 41.8492 62.8233C45.2338 61.131 48.9659 60.25 52.75 60.25C56.5341 60.25 60.2662 61.131 63.6508 62.8233C67.0354 64.5156 69.9795 66.9727 72.25 70C72.5455 70.394 72.9157 70.7259 73.3394 70.9768C73.7631 71.2277 74.2322 71.3927 74.7197 71.4623C75.2072 71.532 75.7036 71.5049 76.1807 71.3827C76.6577 71.2605 77.106 71.0455 77.5 70.75C77.894 70.4545 78.2259 70.0843 78.4768 69.6606C78.7277 69.2369 78.8927 68.7678 78.9623 68.2803C79.032 67.7928 79.0049 67.2964 78.8827 66.8193C78.7605 66.3423 78.5455 65.894 78.25 65.5C74.9294 61.0481 70.5015 57.5429 65.4062 55.3328C68.1985 52.7835 70.1548 49.4495 71.0184 45.7684C71.882 42.0874 71.6126 38.2312 70.2454 34.706C68.8782 31.1809 66.4772 28.1514 63.3575 26.0152C60.2377 23.879 56.5451 22.7359 52.7641 22.7359C48.9831 22.7359 45.2904 23.879 42.1707 26.0152C39.0509 28.1514 36.6499 31.1809 35.2828 34.706C33.9156 38.2312 33.6461 42.0874 34.5097 45.7684C35.3733 49.4495 37.3296 52.7835 40.1219 55.3328C35.0164 57.5387 30.5783 61.0442 27.25 65.5C26.6528 66.2951 26.3958 67.2948 26.5355 68.2793C26.6753 69.2639 27.2004 70.1526 27.9953 70.75ZM41.5 41.5C41.5 39.275 42.1598 37.0999 43.396 35.2498C44.6321 33.3998 46.3891 31.9578 48.4448 31.1064C50.5005 30.2549 52.7625 30.0321 54.9448 30.4662C57.1271 30.9002 59.1316 31.9717 60.705 33.545C62.2783 35.1184 63.3498 37.1229 63.7838 39.3052C64.2179 41.4875 63.9951 43.7495 63.1436 45.8052C62.2922 47.8609 60.8502 49.6179 59.0002 50.854C57.1501 52.0902 54.975 52.75 52.75 52.75C49.7663 52.75 46.9048 51.5647 44.795 49.455C42.6853 47.3452 41.5 44.4837 41.5 41.5ZM86.5 0.25H19C17.0109 0.25 15.1032 1.04018 13.6967 2.4467C12.2902 3.85322 11.5 5.76088 11.5 7.75V19H4C3.00544 19 2.05161 19.3951 1.34835 20.0984C0.645088 20.8016 0.25 21.7554 0.25 22.75C0.25 23.7446 0.645088 24.6984 1.34835 25.4016C2.05161 26.1049 3.00544 26.5 4 26.5H11.5V45.25H4C3.00544 45.25 2.05161 45.6451 1.34835 46.3484C0.645088 47.0516 0.25 48.0054 0.25 49C0.25 49.9946 0.645088 50.9484 1.34835 51.6517C2.05161 52.3549 3.00544 52.75 4 52.75H11.5V71.5H4C3.00544 71.5 2.05161 71.8951 1.34835 72.5983C0.645088 73.3016 0.25 74.2554 0.25 75.25C0.25 76.2446 0.645088 77.1984 1.34835 77.9017C2.05161 78.6049 3.00544 79 4 79H11.5V90.25C11.5 92.2391 12.2902 94.1468 13.6967 95.5533C15.1032 96.9598 17.0109 97.75 19 97.75H86.5C88.4891 97.75 90.3968 96.9598 91.8033 95.5533C93.2098 94.1468 94 92.2391 94 90.25V7.75C94 5.76088 93.2098 3.85322 91.8033 2.4467C90.3968 1.04018 88.4891 0.25 86.5 0.25ZM86.5 90.25H19V7.75H86.5V90.25Z" fill="#2F006D"/>
</svg>
