<svg width="60" height="60" viewBox="0 0 60 60" fill="none" xmlns="http://www.w3.org/2000/svg">
<path d="M11.25 42.1875C11.25 44.7656 12.9328 46.875 15 46.875C15.4525 46.8649 15.8981 46.7628 16.3099 46.5751C16.7217 46.3873 17.091 46.1178 17.3953 45.7828C17.7408 45.431 18.2109 45.2294 18.7039 45.2217C19.1969 45.2139 19.6732 45.4008 20.0294 45.7416C20.3857 46.0825 20.5934 46.55 20.6075 47.0429C20.6216 47.5358 20.4409 48.0143 20.1047 48.375C19.4518 49.0778 18.6623 49.6399 17.7845 50.0268C16.9068 50.4137 15.9592 50.6172 15 50.625C10.8633 50.625 7.5 46.8398 7.5 42.1875C7.5 37.5352 10.8633 33.75 15 33.75C15.9592 33.7578 16.9068 33.9613 17.7845 34.3482C18.6623 34.7351 19.4518 35.2972 20.1047 36C20.4409 36.3607 20.6216 36.8392 20.6075 37.3321C20.5934 37.825 20.3857 38.2925 20.0294 38.6334C19.6732 38.9742 19.1969 39.1611 18.7039 39.1533C18.2109 39.1456 17.7408 38.944 17.3953 38.5922C17.091 38.2572 16.7217 37.9877 16.3099 37.7999C15.8981 37.6122 15.4525 37.5101 15 37.5C12.9328 37.5 11.25 39.6094 11.25 42.1875ZM29.9062 40.1508C28.9688 39.8789 27.9984 39.6 27.457 39.2508C27.1641 39.0609 27.1687 39.0164 27.1945 38.8055C27.1986 38.6352 27.2433 38.4683 27.3248 38.3187C27.4063 38.1691 27.5224 38.0411 27.6633 37.9453C28.7414 37.2141 31.2586 37.5398 32.3086 37.8141C32.7897 37.943 33.3024 37.8756 33.7338 37.6266C34.1652 37.3776 34.48 36.9674 34.609 36.4863C34.738 36.0052 34.6705 35.4926 34.4215 35.0611C34.1725 34.6297 33.7624 34.3149 33.2812 34.1859C32.7844 34.057 28.3594 32.9625 25.5844 34.8328C24.9975 35.2267 24.5044 35.7446 24.1399 36.3501C23.7754 36.9556 23.5484 37.6338 23.475 38.3367C23.0063 42.0586 26.6742 43.1203 28.8656 43.7531C31.6922 44.5711 31.9406 44.9062 31.8609 45.532C31.7883 46.0969 31.5656 46.3148 31.3594 46.4531C30.2812 47.1703 27.8039 46.8187 26.7773 46.5375C26.2975 46.4035 25.784 46.4657 25.35 46.7103C24.9159 46.9549 24.5968 47.3619 24.4629 47.8418C24.3289 48.3217 24.3911 48.8351 24.6357 49.2691C24.8803 49.7032 25.2873 50.0223 25.7672 50.1562C26.9297 50.4607 28.1257 50.6182 29.3273 50.625C30.6914 50.625 32.2102 50.3906 33.4266 49.5797C34.0269 49.1807 34.5315 48.6537 34.9039 48.0365C35.2763 47.4193 35.5074 46.7273 35.5805 46.0102C36.0938 41.9531 32.2242 40.8211 29.9062 40.1508ZM49.3805 33.8602C49.1486 33.7771 48.9026 33.7406 48.6565 33.7527C48.4105 33.7648 48.1693 33.8252 47.9466 33.9306C47.7239 34.0359 47.5242 34.1841 47.3588 34.3666C47.1935 34.5492 47.0657 34.7626 46.9828 34.9945L44.0625 43.1742L41.1398 34.9945C40.9726 34.5262 40.6262 34.1434 40.1768 33.9304C39.7274 33.7175 39.2117 33.6918 38.7434 33.859C38.275 34.0262 37.8922 34.3726 37.6793 34.822C37.4663 35.2715 37.4406 35.7871 37.6078 36.2555L42.2953 49.3805C42.4253 49.7448 42.6648 50.0601 42.9809 50.283C43.2971 50.5059 43.6745 50.6255 44.0613 50.6255C44.4482 50.6255 44.8256 50.5059 45.1417 50.283C45.4579 50.0601 45.6974 49.7448 45.8273 49.3805L50.5148 36.2555C50.6818 35.7874 50.6561 35.2722 50.4434 34.823C50.2307 34.3739 49.8484 34.0276 49.3805 33.8602ZM50.625 20.625V26.25C50.625 26.7473 50.4275 27.2242 50.0758 27.5758C49.7242 27.9275 49.2473 28.125 48.75 28.125C48.2527 28.125 47.7758 27.9275 47.4242 27.5758C47.0725 27.2242 46.875 26.7473 46.875 26.25V22.5H35.625C35.1277 22.5 34.6508 22.3025 34.2992 21.9508C33.9475 21.5992 33.75 21.1223 33.75 20.625V9.375H13.125V26.25C13.125 26.7473 12.9275 27.2242 12.5758 27.5758C12.2242 27.9275 11.7473 28.125 11.25 28.125C10.7527 28.125 10.2758 27.9275 9.92418 27.5758C9.57254 27.2242 9.375 26.7473 9.375 26.25V9.375C9.375 8.38044 9.77009 7.42661 10.4733 6.72335C11.1766 6.02009 12.1304 5.625 13.125 5.625H35.625C35.8713 5.62481 36.1152 5.67314 36.3428 5.76724C36.5705 5.86135 36.7773 5.99937 36.9516 6.17344L50.0766 19.2984C50.2506 19.4727 50.3887 19.6795 50.4828 19.9072C50.5769 20.1348 50.6252 20.3787 50.625 20.625ZM44.2242 18.75L37.5 12.0258V18.75H44.2242Z" fill="#2F006D"/>
</svg>
