<svg width="102" height="80" viewBox="0 0 102 80" fill="none" xmlns="http://www.w3.org/2000/svg">
<path d="M6.125 42C5.13044 42 4.17661 41.6049 3.47335 40.9016C2.77009 40.1984 2.375 39.2446 2.375 38.25C2.375 37.2554 2.77009 36.3016 3.47335 35.5984C4.17661 34.8951 5.13044 34.5 6.125 34.5H19.25C20.2446 34.5 21.1984 34.1049 21.9016 33.4016C22.6049 32.6984 23 31.7446 23 30.75C23 29.7554 22.6049 28.8016 21.9016 28.0984C21.1984 27.3951 20.2446 27 19.25 27H11.75C8.76631 27 5.90483 25.8147 3.79505 23.705C1.68526 21.5952 0.5 18.7337 0.5 15.75C0.5 12.7663 1.68526 9.90483 3.79505 7.79505C5.90483 5.68526 8.76631 4.5 11.75 4.5C11.75 3.50544 12.1451 2.55161 12.8484 1.84835C13.5516 1.14509 14.5054 0.75 15.5 0.75C16.4946 0.75 17.4484 1.14509 18.1516 1.84835C18.8549 2.55161 19.25 3.50544 19.25 4.5H23C23.9946 4.5 24.9484 4.89509 25.6516 5.59835C26.3549 6.30161 26.75 7.25544 26.75 8.25C26.75 9.24456 26.3549 10.1984 25.6516 10.9016C24.9484 11.6049 23.9946 12 23 12H11.75C10.7554 12 9.80161 12.3951 9.09835 13.0984C8.39509 13.8016 8 14.7554 8 15.75C8 16.7446 8.39509 17.6984 9.09835 18.4016C9.80161 19.1049 10.7554 19.5 11.75 19.5H19.25C22.2337 19.5 25.0952 20.6853 27.205 22.795C29.3147 24.9048 30.5 27.7663 30.5 30.75C30.5 33.7337 29.3147 36.5952 27.205 38.705C25.0952 40.8147 22.2337 42 19.25 42C19.25 42.9946 18.8549 43.9484 18.1516 44.6517C17.4484 45.3549 16.4946 45.75 15.5 45.75C14.5054 45.75 13.5516 45.3549 12.8484 44.6517C12.1451 43.9484 11.75 42.9946 11.75 42H6.125ZM101.75 8.25V72C101.75 73.9891 100.96 75.8968 99.5533 77.3033C98.1468 78.7098 96.2391 79.5 94.25 79.5H11.75C9.76088 79.5 7.85322 78.7098 6.4467 77.3033C5.04018 75.8968 4.25 73.9891 4.25 72V53.25C4.25 52.2554 4.64509 51.3016 5.34835 50.5983C6.05161 49.8951 7.00544 49.5 8 49.5C8.99456 49.5 9.94839 49.8951 10.6516 50.5983C11.3549 51.3016 11.75 52.2554 11.75 53.25V72H68V57H30.5C29.5054 57 28.5516 56.6049 27.8484 55.9017C27.1451 55.1984 26.75 54.2446 26.75 53.25C26.75 52.2554 27.1451 51.3016 27.8484 50.5983C28.5516 49.8951 29.5054 49.5 30.5 49.5H68V34.5H41.75C40.7554 34.5 39.8016 34.1049 39.0984 33.4016C38.3951 32.6984 38 31.7446 38 30.75C38 29.7554 38.3951 28.8016 39.0984 28.0984C39.8016 27.3951 40.7554 27 41.75 27H94.25V12H38C37.0054 12 36.0516 11.6049 35.3484 10.9016C34.6451 10.1984 34.25 9.24456 34.25 8.25C34.25 7.25544 34.6451 6.30161 35.3484 5.59835C36.0516 4.89509 37.0054 4.5 38 4.5H98C98.9946 4.5 99.9484 4.89509 100.652 5.59835C101.355 6.30161 101.75 7.25544 101.75 8.25ZM75.5 49.5H94.25V34.5H75.5V49.5ZM94.25 72V57H75.5V72H94.25Z" fill="#2F006D"/>
</svg>
