<svg width="30" height="30" viewBox="0 0 30 30" fill="none" xmlns="http://www.w3.org/2000/svg">
<path d="M26.6379 8.59805L21.402 3.36094C21.2278 3.18679 21.0211 3.04864 20.7936 2.95438C20.5661 2.86013 20.3223 2.81161 20.076 2.81161C19.8297 2.81161 19.5859 2.86013 19.3584 2.95438C19.1308 3.04864 18.9241 3.18679 18.75 3.36094L4.29962 17.8125C4.12475 17.986 3.98611 18.1925 3.89176 18.42C3.79741 18.6476 3.74922 18.8916 3.75001 19.1379V24.375C3.75001 24.8723 3.94755 25.3492 4.29918 25.7008C4.65081 26.0525 5.12773 26.25 5.62501 26.25H10.8621C11.1084 26.2508 11.3525 26.2026 11.58 26.1083C11.8075 26.0139 12.014 25.8753 12.1875 25.7004L26.6379 11.25C26.8121 11.0759 26.9502 10.8692 27.0445 10.6417C27.1387 10.4141 27.1872 10.1703 27.1872 9.92403C27.1872 9.67776 27.1387 9.43391 27.0445 9.2064C26.9502 8.97888 26.8121 8.77217 26.6379 8.59805ZM10.8621 24.375H5.62501V19.1379L15.9375 8.82539L21.1746 14.0625L10.8621 24.375ZM22.5 12.7359L17.2629 7.5L20.0754 4.6875L25.3125 9.92344L22.5 12.7359Z" fill="#2F006D"/>
</svg>
