<svg width="230" height="13" viewBox="0 0 230 13" fill="none" xmlns="http://www.w3.org/2000/svg">
<path d="M1.1228 1.9H3.9788C6.3428 1.9 7.6268 3.22 7.6268 5.956C7.6268 8.68 6.3548 10 3.9788 10H1.1228C0.666797 10 0.450797 9.784 0.450797 9.34V2.56C0.450797 2.116 0.666797 1.9 1.1228 1.9ZM1.8668 3.46V8.44C1.8668 8.548 1.9148 8.584 2.0228 8.584H3.9788C5.5508 8.584 6.2108 7.804 6.2108 5.944C6.2108 4.096 5.5508 3.316 3.9788 3.316H2.0228C1.9148 3.316 1.8668 3.352 1.8668 3.46ZM11.3025 3.664H13.3545C14.8545 3.664 15.4905 4.384 15.4905 5.608C15.4905 6.772 14.9025 7.432 13.3425 7.432H10.3305V7.888C10.3305 8.392 10.6065 8.764 11.3025 8.764H15.1785V10H11.3025C9.71845 10 9.09445 9.112 9.09445 7.912V5.752C9.09445 4.552 9.71845 3.664 11.3025 3.664ZM10.3305 5.764V6.436H13.3065C13.9905 6.436 14.2425 6.148 14.2425 5.68C14.2425 5.2 13.9665 4.888 13.3425 4.888H11.3025C10.6065 4.888 10.3305 5.272 10.3305 5.764ZM18.8186 3.664H22.3346V4.888H18.8306C18.2426 4.888 18.0026 5.128 18.0026 5.608C18.0026 6.052 18.1946 6.292 18.9026 6.292H20.3906C22.1426 6.292 22.5866 7.096 22.5866 8.08C22.5866 9.208 21.9986 10 20.5106 10H16.8266V8.764H20.5106C21.0986 8.764 21.3386 8.56 21.3386 8.068C21.3386 7.564 21.0746 7.36 20.4386 7.36H18.9386C17.1866 7.36 16.7546 6.484 16.7546 5.512C16.7546 4.372 17.3426 3.664 18.8186 3.664ZM24.0858 3.664H25.3578V10H24.0858V3.664ZM24.0858 1.276H25.3698V2.752H24.0858V1.276ZM29.6276 3.664H31.3796C32.8916 3.664 33.7076 4.552 33.7076 6.376V10.024C33.7076 11.824 33.0836 12.532 31.3076 12.532H27.5396V11.308H31.1636C32.1116 11.308 32.4236 10.936 32.4236 10.024V9.736H29.6276C27.9356 9.736 26.8796 8.74 26.8796 6.688C26.8796 4.648 27.9356 3.664 29.6276 3.664ZM28.1636 6.736C28.1636 8.032 28.6556 8.584 29.7476 8.584H32.4236V6.364C32.4236 5.332 32.0276 4.888 31.0076 4.888H29.7476C28.6556 4.888 28.1636 5.44 28.1636 6.736ZM36.3762 3.664H38.9922C41.1402 3.664 42.1842 4.684 42.1842 6.436V10H40.9002V6.436C40.9002 5.44 40.3242 4.888 38.9922 4.888H36.9162C36.8082 4.888 36.7602 4.948 36.7602 5.068V10H35.4882V4.648C35.4882 3.904 35.7402 3.664 36.3762 3.664ZM46.0485 3.664H48.1005C49.6005 3.664 50.2365 4.384 50.2365 5.608C50.2365 6.772 49.6485 7.432 48.0885 7.432H45.0765V7.888C45.0765 8.392 45.3525 8.764 46.0485 8.764H49.9245V10H46.0485C44.4645 10 43.8405 9.112 43.8405 7.912V5.752C43.8405 4.552 44.4645 3.664 46.0485 3.664ZM45.0765 5.764V6.436H48.0525C48.7365 6.436 48.9885 6.148 48.9885 5.68C48.9885 5.2 48.7125 4.888 48.0885 4.888H46.0485C45.3525 4.888 45.0765 5.272 45.0765 5.764ZM57.0447 0.916H58.3287V7.288C58.3287 9.112 57.5127 10 56.0007 10H54.2487C52.5567 10 51.5007 8.968 51.5007 6.832C51.5007 4.696 52.5567 3.664 54.2487 3.664H57.0447V0.916ZM55.6287 8.764C56.6487 8.764 57.0447 8.308 57.0447 7.228V4.888H54.3687C53.2767 4.888 52.7847 5.464 52.7847 6.832C52.7847 8.2 53.2767 8.764 54.3687 8.764H55.6287ZM66.3556 0.916H67.4836C68.8636 0.916 69.4996 1.84 69.4996 2.968C69.4996 3.88 69.0676 4.492 67.9756 5.032L67.2316 5.404L68.6596 7.048L69.7156 5.632H71.2156L69.4636 7.96L71.2516 10H69.6316L68.6956 8.932C67.8676 9.868 67.2916 10 66.4516 10H65.0836C63.9196 10 62.9476 9.316 62.9476 7.744C62.9476 6.688 63.3916 6.112 65.0716 5.332L65.4076 5.176L64.9876 4.684C64.5796 4.228 64.3036 3.688 64.3036 2.968C64.3036 1.84 65.0236 0.916 66.3556 0.916ZM66.4636 8.764C67.0156 8.764 67.3876 8.608 67.9036 8.02L66.0916 5.956L65.7076 6.148C64.5796 6.712 64.2916 6.988 64.2916 7.564C64.2916 8.284 64.6996 8.764 65.3596 8.764H66.4636ZM65.6716 3.1C65.6716 3.532 65.8396 3.808 66.1516 4.156L66.5596 4.624L67.3036 4.264C67.9156 3.976 68.2276 3.676 68.2276 3.1C68.2276 2.572 67.9756 2.116 67.3156 2.116H66.5956C65.9476 2.116 65.6716 2.548 65.6716 3.1ZM80.9626 0.916H82.2466V7.288C82.2466 9.112 81.4306 10 79.9186 10H78.1666C76.4746 10 75.4186 8.968 75.4186 6.832C75.4186 4.696 76.4746 3.664 78.1666 3.664H80.9626V0.916ZM79.5466 8.764C80.5666 8.764 80.9626 8.308 80.9626 7.228V4.888H78.2866C77.1946 4.888 76.7026 5.464 76.7026 6.832C76.7026 8.2 77.1946 8.764 78.2866 8.764H79.5466ZM86.1384 3.664H88.1904C89.6904 3.664 90.3264 4.384 90.3264 5.608C90.3264 6.772 89.7384 7.432 88.1784 7.432H85.1664V7.888C85.1664 8.392 85.4424 8.764 86.1384 8.764H90.0144V10H86.1384C84.5544 10 83.9304 9.112 83.9304 7.912V5.752C83.9304 4.552 84.5544 3.664 86.1384 3.664ZM85.1664 5.764V6.436H88.1424C88.8264 6.436 89.0784 6.148 89.0784 5.68C89.0784 5.2 88.8024 4.888 88.1784 4.888H86.1384C85.4424 4.888 85.1664 5.272 85.1664 5.764ZM90.9956 3.664H92.3396L94.4516 8.752C94.4996 8.884 94.6076 8.944 94.7636 8.944C94.9316 8.944 95.0396 8.884 95.0996 8.752L97.2956 3.664H98.6636L96.2156 9.316C95.9516 9.916 95.4836 10.144 94.7636 10.144C94.0316 10.144 93.5636 9.904 93.3236 9.316L90.9956 3.664ZM101.525 3.664H103.577C105.077 3.664 105.713 4.384 105.713 5.608C105.713 6.772 105.125 7.432 103.565 7.432H100.553V7.888C100.553 8.392 100.829 8.764 101.525 8.764H105.401V10H101.525C99.9411 10 99.3171 9.112 99.3171 7.912V5.752C99.3171 4.552 99.9411 3.664 101.525 3.664ZM100.553 5.764V6.436H103.529C104.213 6.436 104.465 6.148 104.465 5.68C104.465 5.2 104.189 4.888 103.565 4.888H101.525C100.829 4.888 100.553 5.272 100.553 5.764ZM107.277 0.916H108.549V10H107.277V0.916ZM112.819 3.664H114.151C115.831 3.664 116.899 4.696 116.899 6.832C116.899 8.968 115.831 10 114.151 10H112.819C111.127 10 110.071 8.968 110.071 6.832C110.071 4.696 111.127 3.664 112.819 3.664ZM114.031 4.888H112.939C111.835 4.888 111.355 5.464 111.355 6.832C111.355 8.2 111.835 8.764 112.939 8.764H114.031C115.123 8.764 115.615 8.2 115.615 6.832C115.615 5.464 115.123 4.888 114.031 4.888ZM120.726 3.664H122.478C124.158 3.664 125.214 4.696 125.214 6.832C125.214 8.968 124.158 10 122.478 10H119.67V12.544H118.398V6.376C118.398 4.552 119.202 3.664 120.726 3.664ZM119.67 6.436V8.764H122.346C123.45 8.764 123.93 8.2 123.93 6.832C123.93 5.464 123.45 4.888 122.346 4.888H121.098C120.066 4.888 119.67 5.344 119.67 6.436ZM128.818 3.664H130.87C132.37 3.664 133.006 4.384 133.006 5.608C133.006 6.772 132.418 7.432 130.858 7.432H127.846V7.888C127.846 8.392 128.122 8.764 128.818 8.764H132.694V10H128.818C127.234 10 126.61 9.112 126.61 7.912V5.752C126.61 4.552 127.234 3.664 128.818 3.664ZM127.846 5.764V6.436H130.822C131.506 6.436 131.758 6.148 131.758 5.68C131.758 5.2 131.482 4.888 130.858 4.888H128.818C128.122 4.888 127.846 5.272 127.846 5.764ZM139.814 0.916H141.098V7.288C141.098 9.112 140.282 10 138.77 10H137.018C135.326 10 134.27 8.968 134.27 6.832C134.27 4.696 135.326 3.664 137.018 3.664H139.814V0.916ZM138.398 8.764C139.418 8.764 139.814 8.308 139.814 7.228V4.888H137.138C136.046 4.888 135.554 5.464 135.554 6.832C135.554 8.2 136.046 8.764 137.138 8.764H138.398ZM146.113 0.916H147.385V3.664H150.193C151.873 3.664 152.929 4.696 152.929 6.832C152.929 8.968 151.873 10 150.193 10H148.441C146.917 10 146.113 9.112 146.113 7.288V0.916ZM150.061 4.888H147.385V7.228C147.385 8.308 147.781 8.764 148.813 8.764H150.061C151.165 8.764 151.645 8.2 151.645 6.832C151.645 5.464 151.165 4.888 150.061 4.888ZM159.491 3.664H160.847L157.031 12.544H155.663L156.851 9.772C156.131 9.772 155.879 9.544 155.663 8.992L153.539 3.664H154.883L156.791 8.38C156.875 8.608 156.935 8.644 157.175 8.644H157.343L159.491 3.664ZM165.399 0.55H170.243C172.371 0.55 173.281 1.866 173.281 3.378C173.281 4.806 172.455 6.346 170.243 6.346H167.303C167.149 6.346 167.065 6.416 167.065 6.584V10H165.413V6.262C165.413 5.198 165.861 4.764 166.897 4.764H170.299C171.237 4.764 171.615 4.12 171.615 3.462C171.615 2.776 171.209 2.202 170.313 2.202H165.399V0.55ZM177.537 2.608H179.091C181.051 2.608 182.297 3.812 182.297 6.304C182.297 8.796 181.051 10 179.091 10H177.537C175.563 10 174.331 8.796 174.331 6.304C174.331 3.812 175.563 2.608 177.537 2.608ZM178.951 4.036H177.677C176.389 4.036 175.829 4.708 175.829 6.304C175.829 7.9 176.389 8.558 177.677 8.558H178.951C180.225 8.558 180.799 7.9 180.799 6.304C180.799 4.708 180.225 4.036 178.951 4.036ZM185.11 2.608H188.162C190.668 2.608 191.886 3.798 191.886 5.842V10H190.388V5.842C190.388 4.68 189.716 4.036 188.162 4.036H185.74C185.614 4.036 185.558 4.106 185.558 4.246V10H184.074V3.756C184.074 2.888 184.368 2.608 185.11 2.608ZM193.888 2.608H199.04C200.328 2.608 200.944 3.28 200.944 4.302C200.944 5.212 200.454 5.8 199.684 6.08L195.442 7.62C195.19 7.718 195.05 7.886 195.05 8.124C195.05 8.404 195.232 8.572 195.61 8.572H200.79V10H195.526C194.252 10 193.622 9.328 193.622 8.306C193.622 7.48 194.028 6.822 194.882 6.514L199.138 4.988C199.446 4.876 199.53 4.666 199.53 4.47C199.53 4.19 199.348 4.036 198.956 4.036H193.888V2.608ZM202.765 0.55H207.889C210.017 0.55 210.927 1.866 210.927 3.378C210.927 4.554 210.367 5.814 208.925 6.22L211.123 10H209.289L207.133 6.346H204.669C204.515 6.346 204.431 6.416 204.431 6.584V10H202.779V6.262C202.779 5.198 203.227 4.764 204.263 4.764H207.945C208.883 4.764 209.261 4.12 209.261 3.448C209.261 2.776 208.855 2.202 207.945 2.202H202.765V0.55ZM218.849 2.608H220.431L215.979 12.968H214.383L215.769 9.734C214.929 9.734 214.635 9.468 214.383 8.824L211.905 2.608H213.473L215.699 8.11C215.797 8.376 215.867 8.418 216.147 8.418H216.343L218.849 2.608ZM221.725 2.608H223.223V7.032C223.223 7.9 223.867 8.558 225.043 8.558H226.247C227.423 8.558 228.053 7.9 228.053 7.032V2.608H229.509V7.088C229.509 8.796 228.417 10 226.303 10H224.931C222.817 10 221.725 8.796 221.725 7.088V2.608Z" fill="white"/>
</svg>
